<svg xmlns="http://www.w3.org/2000/svg" viewBox="0 0 300 300"><style></style><path d="M265.58 53.93L264 59.62l24.93 45.8 4.61 1.9 6.5-2.17V300h-96.25c27.64-29.81 44.72-69.1 44.72-112.47a162.43 162.43 0 00-13.55-65c13.55-10 17.61-12.74 31.17-19.78l6.77-.81.54-1.62-13.28-24.98H258l-3.52 5.15c-11.65 7.59-18.7 9.22-34.15 15.18a165.4 165.4 0 00-138.48-74A159.49 159.49 0 000 43.63V0h300v35.23zM229.27 187.8A150.14 150.14 0 01178.59 300H0V64a149 149 0 0181.84-24.43c81.03 0 147.43 66.66 147.43 148.23zm-54.47-39.56c0-32.52-23.85-48-71-48H28.73v14.63l16.8 3.79v130.12l-16.8 3.79v14.91h82.66v-14.91l-28.73-3.79v-48.24h20.6c45.79 0 71.54-18.43 71.54-52.3zm-39 1.08c0 20.6-11.11 33.33-29 33.33H82.66v-64.76h25.2c17.61 0 27.91 11.38 27.91 31.43z" fill="#2b3137"/></svg>